# xmcd
# 
# Track frame offsets:
#     150
#     12178
#     27333
#     42923
#     56604
#     78534
#     95629
#     109984
#     124227
#     142803
#     166630
#     182390
#     198528
#     216176
# 
# Disc length: 3100
# 
# Revision: 3
# Processed by: cddbd v1.5.2PL0 Copyright (c) Steve Scherf et al.
# Submitted via: fre:ac v1.0.27
# 
DISCID=ba0c1a0e
DTITLE=Various Artist - Rec 58
DYEAR=0
DGENRE=Top 40
TTITLE0=Boemerang - Tiroler Holzhacker bubl'n
TTITLE1=Dennie Christian - Rosamunde
TTITLE2=Dennie Christian - Rosamunde.
TTITLE3=Gers Pardoel - Louise
TTITLE4=Kensington - All For Nothing
TTITLE5=Kensington - All For Nothing (Radio Edit)
TTITLE6=Lilly Wood and The Prick and Robin Schulz - Prayer In C (Robin Schulz Radio Edit)
TTITLE7=Meghan Trainor - All About That Bass
TTITLE8=Michael Jackson and Justin Timberlake - Love Never Felt So Good
TTITLE9=Milky Chance - Stolen Dance
TTITLE10=Mr. Probz - Waves (Robin Schulz Radio Edit)
TTITLE11=Natalia - Boom
TTITLE12=Pharrell Williams - Happy (From "Despicable Me 2")
TTITLE13=Sheppard - Geronimo
EXTD=
EXTT0=
EXTT1=
EXTT2=
EXTT3=
EXTT4=
EXTT5=
EXTT6=
EXTT7=
EXTT8=
EXTT9=
EXTT10=
EXTT11=
EXTT12=
EXTT13=
PLAYORDER=
